<svg xmlns="http://www.w3.org/2000/svg" width="35" height="35" viewBox="0 0 35 35"><path fill-rule="evenodd" clip-rule="evenodd" fill="#DDD" d="M11.123 24.825c-3.396-.169-5.497-2.722-5.945-4.549a7.061 7.061 0 0 0 2.801-.109c-3.235-.976-4.94-3.104-5.122-6.436.91.402 1.823.711 2.835.728C2.807 12.06 2.182 9.18 3.74 5.745c3.568 4.187 8.021 6.475 13.468 6.849-.042-.403-.096-.76-.115-1.121-.107-2.052.592-3.792 2.103-5.178 1.637-1.503 3.587-1.987 5.746-1.576a6.032 6.032 0 0 1 3.214 1.73c.131.133.249.175.444.132a13.58 13.58 0 0 0 3.682-1.411c.043-.023.09-.042.199-.095-.505 1.521-1.419 2.643-2.693 3.491l.02.068c.39-.069.78-.123 1.166-.211.396-.09.785-.204 1.173-.328.384-.123.76-.27 1.179-.366-.298.379-.587.765-.894 1.136-.635.766-1.365 1.43-2.152 2.035-.087.067-.149.227-.146.341a18.752 18.752 0 0 1-.407 4.44 19.755 19.755 0 0 1-1.749 4.854 18.731 18.731 0 0 1-2.162 3.306 18.005 18.005 0 0 1-3.404 3.213 17.601 17.601 0 0 1-3.818 2.089 18.355 18.355 0 0 1-3.962 1.058c-1.488.231-2.985.268-4.484.165a17.81 17.81 0 0 1-4.562-.937 18.206 18.206 0 0 1-3.665-1.721 1.495 1.495 0 0 1-.245-.177c3.502.305 6.661-.557 9.447-2.706z"/></svg>