<?xml version="1.0" encoding="utf-8"?>
<!-- Generator: Adobe Illustrator 16.0.0, SVG Export Plug-In . SVG Version: 6.00 Build 0)  -->
<!DOCTYPE svg PUBLIC "-//W3C//DTD SVG 1.1//EN" "http://www.w3.org/Graphics/SVG/1.1/DTD/svg11.dtd">
<svg version="1.1" id="Layer_1" xmlns="http://www.w3.org/2000/svg" xmlns:xlink="http://www.w3.org/1999/xlink" x="0px" y="0px"
	 width="239px" height="178.945px" viewBox="0 0 239 178.945" enable-background="new 0 0 239 178.945" xml:space="preserve">
<path fill="#1C1C1C" d="M0,0v178.945h239V0H0z M137.375,11h24v16h-24V11z M77.625,11h24v16h-24V11z M17.875,11h24v16h-24V11z
	 M41.875,167.945h-24v-16h24V167.945z M101.625,167.945h-24v-16h24V167.945z M161.375,167.945h-24v-16h24V167.945z M221.125,167.945
	h-24v-16h24V167.945z M221.125,142.639H17.875V36.306h203.25V142.639z M221.125,27h-24V11h24V27z"/>
</svg>
