<?xml version="1.0" encoding="utf-8"?>
<!-- Generator: Adobe Illustrator 16.0.0, SVG Export Plug-In . SVG Version: 6.00 Build 0)  -->
<!DOCTYPE svg PUBLIC "-//W3C//DTD SVG 1.1//EN" "http://www.w3.org/Graphics/SVG/1.1/DTD/svg11.dtd">
<svg version="1.1" id="Layer_1" xmlns="http://www.w3.org/2000/svg" xmlns:xlink="http://www.w3.org/1999/xlink" x="0px" y="0px"
	 width="35px" height="35px" viewBox="0 0 35 35" enable-background="new 0 0 35 35" xml:space="preserve">
<path fill-rule="evenodd" clip-rule="evenodd" fill="#DDDDDD" d="M11.123,24.825c-3.396-0.169-5.497-2.722-5.945-4.549
	c0.929,0.146,1.843,0.121,2.801-0.109c-3.235-0.976-4.94-3.104-5.122-6.436c0.91,0.402,1.823,0.711,2.835,0.728
	C2.807,12.06,2.182,9.18,3.74,5.745c3.568,4.187,8.021,6.475,13.468,6.849c-0.042-0.403-0.096-0.76-0.115-1.121
	c-0.107-2.052,0.592-3.792,2.103-5.178c1.637-1.503,3.587-1.987,5.746-1.576c1.237,0.235,2.321,0.824,3.214,1.73
	c0.131,0.133,0.249,0.175,0.444,0.132c1.297-0.292,2.523-0.761,3.682-1.411c0.043-0.023,0.09-0.042,0.199-0.095
	c-0.505,1.521-1.419,2.643-2.693,3.491c0.007,0.023,0.014,0.045,0.02,0.068c0.39-0.069,0.78-0.123,1.166-0.211
	c0.396-0.09,0.785-0.204,1.173-0.328c0.384-0.123,0.76-0.27,1.179-0.366c-0.298,0.379-0.587,0.765-0.894,1.136
	c-0.635,0.766-1.365,1.43-2.152,2.035c-0.087,0.067-0.149,0.227-0.146,0.341c0.034,1.497-0.088,2.977-0.407,4.44
	c-0.371,1.695-0.954,3.313-1.749,4.854c-0.606,1.178-1.324,2.282-2.162,3.306c-0.996,1.216-2.126,2.291-3.404,3.213
	c-1.188,0.855-2.461,1.552-3.818,2.089c-1.279,0.507-2.604,0.847-3.962,1.058c-1.488,0.231-2.985,0.268-4.484,0.165
	c-1.561-0.107-3.08-0.43-4.562-0.937c-1.285-0.438-2.507-1.01-3.665-1.721c-0.083-0.05-0.165-0.104-0.245-0.177
	C5.178,27.836,8.337,26.974,11.123,24.825z"/>
</svg>
